<svg width="256" height="256" viewBox="0 0 256 256" fill="none" xmlns="http://www.w3.org/2000/svg">
  <rect width="256" height="256" rx="48" fill="#F8FAFC"/>
  <rect x="20" y="20" width="216" height="216" rx="40" stroke="#046A38" stroke-width="12" fill="white"/>
  <circle cx="128" cy="96" r="34" fill="#046A38" opacity="0.12"/>
  <path d="M104 95c0-13.255 10.745-24 24-24h24v14h-24c-5.523 0-10 4.477-10 10s4.477 10 10 10h16c13.255 0 24 10.745 24 24s-10.745 24-24 24h-40v-14h40c5.523 0 10-4.477 10-10s-4.477-10-10-10h-16c-13.255 0-24-10.745-24-24Z" fill="#046A38"/>
  <text x="128" y="200" text-anchor="middle" font-family="Arial, Helvetica, sans-serif" font-size="40" font-weight="700" fill="#046A38">CPF</text>
</svg>
